# xmcd CD database file
#
# Track frame offsets:
#	150
#	35043
#	59280
#	83337
#	108800
#	132284
#	155992
#	174097
#	198643
#	224106
#	245477
#
# Disc length: 3566 seconds
#
# Revision: 2
# Processed by: cddbd v1.5PL3 Copyright (c) Steve Scherf et al.
# Submitted via: CDex 1.51
#
DISCID=9a0dec0b
DTITLE=Africando - Martina
DYEAR=2003
DGENRE=Salsa
TTITLE0=Lindas Africanas
TTITLE1=Temedi
TTITLE2=Lote Lo
TTITLE3=Abibou
TTITLE4=Fouta Tooro
TTITLE5=Azo Nkplon
TTITLE6=Tiembela
TTITLE7=Dioumte
TTITLE8=Abibou
TTITLE9=Reference
TTITLE10=Que Te Ama Siempre
EXTD=YEAR: 2003
EXTT0=
EXTT1=
EXTT2=
EXTT3=
EXTT4=
EXTT5=
EXTT6=
EXTT7=
EXTT8=
EXTT9=
EXTT10=
PLAYORDER=
